<?xml version="1.0" encoding="UTF-8"?>
<svg width="32px" height="31px" viewBox="0 0 32 31" version="1.1" xmlns="http://www.w3.org/2000/svg" xmlns:xlink="http://www.w3.org/1999/xlink">
    <!-- Generator: Sketch 46.2 (44496) - http://www.bohemiancoding.com/sketch -->
    <title>KochStack_wht@3x</title>
    <desc>Created with Sketch.</desc>
    <defs>
        <polygon id="path-1" points="0.0164102564 0.106666667 0.0164102564 6.29059829 3.62899145 6.29059829 7.24157265 6.29059829 7.24157265 0.106666667"></polygon>
        <polygon id="path-3" points="15.9380513 0.230564103 0.0164102564 0.230564103 0.0164102564 30.0668718 31.8596923 30.0668718 31.8596923 0.230564103"></polygon>
    </defs>
    <g id="History---Chapter-4" stroke="none" stroke-width="1" fill="none" fill-rule="evenodd">
        <g id="Chapter-4.2" transform="translate(-96.000000, -4875.000000)">
            <g id="Navigation-Bottom" transform="translate(0.000000, 4858.000000)">
                <g id="Koch-Logo">
                    <g id="KochStack_wht" transform="translate(96.000000, 17.000000)">
                        <g id="Group-3" transform="translate(0.000000, 23.794872)">
                            <mask id="mask-2" fill="white">
                                <use xlink:href="#path-1"></use>
                            </mask>
                            <g id="Clip-2"></g>
                            <path d="M4.47452991,2.8414359 C4.51145299,2.80259829 7.06488889,0.106666667 7.06488889,0.106666667 L4.64601709,0.106666667 C4.64601709,0.106666667 2.37401709,2.20471795 2.27364103,2.2974359 L2.27364103,0.106666667 L0,0.106666667 L0,6.29059829 L2.27364103,6.29059829 L2.27364103,4.96218803 C2.29305983,4.94523077 2.70687179,4.58147009 2.75035897,4.54317949 C2.7905641,4.59186325 4.17230769,6.29059829 4.17230769,6.29059829 L7.24157265,6.29059829 C7.24157265,6.29059829 4.50817094,2.88355556 4.47452991,2.8414359" id="Fill-1" fill="#FFFFFE" mask="url(#mask-2)"></path>
                        </g>
                        <polyline id="Fill-4" fill="#FFFFFE" points="27.2946325 23.8960684 27.2946325 26.1048889 25.3275897 26.1024274 25.3243077 23.8960684 22.9926838 23.8960684 22.9926838 30.0707009 25.3377094 30.0698803 25.3377094 27.8260513 27.2743932 27.8260513 27.2743932 30.0698803 29.6809573 30.0707009 29.6809573 23.8960684 27.2946325 23.8960684"></polyline>
                        <path d="M12.8191453,23.9031795 L8.79097436,23.9031795 C8.03637607,23.9031795 7.42290598,24.5959658 7.42290598,25.4473846 L7.42290598,28.5226667 C7.42290598,29.3757265 8.03637607,30.0685128 8.79097436,30.0685128 L12.8191453,30.0685128 C13.5731966,30.0685128 14.1874872,29.3757265 14.1874872,28.5226667 L14.1874872,25.4473846 C14.1874872,24.5959658 13.5731966,23.9031795 12.8191453,23.9031795 M11.8739145,25.7859829 L11.8739145,28.2603761 C11.8739145,28.512547 11.6917607,28.7174017 11.4680342,28.7174017 L10.1543932,28.7174017 C9.92984615,28.7174017 9.74769231,28.512547 9.74769231,28.2603761 L9.74769231,25.7859829 C9.74769231,25.533812 9.92984615,25.3289573 10.1543932,25.3289573 L11.4680342,25.3289573 C11.6917607,25.3289573 11.8739145,25.533812 11.8739145,25.7859829" id="Fill-5" fill="#FFFFFE"></path>
                        <path d="M21.9000342,26.143453 L21.9000342,25.6743932 C21.9074188,25.1208205 21.7039316,24.5667009 21.3705299,24.2281026 C21.1607521,24.0155897 20.9176068,23.903453 20.6676239,23.903453 L16.449094,23.903453 C15.7694359,23.903453 15.2164103,24.6974359 15.2164103,25.6743932 L15.2164103,28.3022222 C15.2164103,29.278359 15.7694359,30.0715214 16.449094,30.0715214 L20.6676239,30.0715214 C21.3475556,30.0715214 21.9000342,29.278359 21.9000342,28.3022222 L21.9000342,27.5908376 L19.6865641,27.5954872 L19.6356923,28.1865299 C19.6105299,28.4395214 19.4412308,28.7097436 19.2284444,28.7097436 L17.9383248,28.7097436 C17.7137778,28.7097436 17.5313504,28.5100855 17.5313504,28.2647521 L17.5313504,25.7988376 C17.5313504,25.5535043 17.7137778,25.3538462 17.9383248,25.3538462 L19.2284444,25.3538462 C19.4535385,25.3538462 19.6356923,25.5535043 19.6356923,25.7988376 L19.6356923,26.143453 L21.9000342,26.143453" id="Fill-6" fill="#FFFFFE"></path>
                        <g id="Group-10">
                            <mask id="mask-4" fill="white">
                                <use xlink:href="#path-3"></use>
                            </mask>
                            <g id="Clip-8"></g>
                            <path d="M31.6321368,29.2674188 L31.426735,29.8398632 L31.2221538,29.2674188 L30.9935043,29.2674188 L30.9935043,30.0668718 L31.1401026,30.0668718 L31.1401026,29.4216752 L31.3632821,30.0668718 L31.4918291,30.0668718 L31.712547,29.4216752 L31.712547,30.0668718 L31.8596923,30.0668718 L31.8596923,29.2674188 L31.6321368,29.2674188 Z M30.176547,29.2674188 L30.176547,29.4008889 L30.4374701,29.4008889 L30.4374701,30.0668718 L30.5966496,30.0668718 L30.5966496,29.4008889 L30.8583932,29.4008889 L30.8583932,29.2674188 L30.176547,29.2674188 L30.176547,29.2674188 Z" id="Fill-7" fill="#FFFFFE" mask="url(#mask-4)"></path>
                            <path d="M14.4437607,0.230564103 L0.0136752137,0.230564103 L0.0136752137,22.0655043 L14.335453,22.0592137 C14.335453,22.0592137 10.9527521,11.2410256 10.9355214,11.1849573 C10.9532991,11.1288889 14.4437607,0.230564103 14.4437607,0.230564103" id="Fill-9" fill="#FFFFFE" mask="url(#mask-4)"></path>
                        </g>
                        <polyline id="Fill-11" fill="#FFFFFE" points="19.552 0.232478632 12.9884444 11.1608889 19.551453 22.0616752 29.6825983 22.0616752 29.6825983 0.232478632 19.552 0.232478632"></polyline>
                    </g>
                </g>
            </g>
        </g>
    </g>
</svg>